REM DIRINDEX 1\2,1\3\7,1\3\8,1\4\9,1\4\10,1\4\11,1\5\12,1\5\13,1\5\14,1\6\15,1\6\16,1\6\17
REM DIRNAME "folder01","folder02","folder03","folder04","folder05","folder06","folder07","folder08","folder09","folder10","folder11","folder12","folder13","folder14","folder15","folder16","folder17"
TITLE ""
FILE "2Q_t_0935-0952.mp3" MP3
  TRACK 01 AUDIO
    TITLE "0:"
    INDEX 01 00:00:00
  TRACK 02 AUDIO
    TITLE "7:cjc174_3652"
    INDEX 01 00:00:08
  TRACK 03 AUDIO
    TITLE "0:"
    INDEX 01 00:01:22
  TRACK 04 AUDIO
    TITLE "8:cjc174_3653"
    INDEX 01 00:02:03
  TRACK 05 AUDIO
    TITLE "0:"
    INDEX 01 00:04:06
  TRACK 06 AUDIO
    TITLE "7:cjc174_3654"
    INDEX 01 00:04:51
  TRACK 07 AUDIO
    TITLE "0:"
    INDEX 01 00:05:66
  TRACK 08 AUDIO
    TITLE "8:cjc174_3655"
    INDEX 01 00:06:40
  TRACK 09 AUDIO
    TITLE "0:"
    INDEX 01 00:08:49
  TRACK 10 AUDIO
    TITLE "7:cjc174_3656"
    INDEX 01 00:09:19
  TRACK 11 AUDIO
    TITLE "0:"
    INDEX 01 00:10:28
  TRACK 12 AUDIO
    TITLE "8:cjc174_3657"
    INDEX 01 00:11:10
  TRACK 13 AUDIO
    TITLE "0:"
    INDEX 01 00:13:29
  TRACK 14 AUDIO
    TITLE "7:cjc174_3658"
    INDEX 01 00:14:01
  TRACK 15 AUDIO
    TITLE "0:"
    INDEX 01 00:15:31
  TRACK 16 AUDIO
    TITLE "8:cjc174_3659"
    INDEX 01 00:16:01
  TRACK 17 AUDIO
    TITLE "0:"
    INDEX 01 00:18:00
  TRACK 18 AUDIO
    TITLE "7:cjc174_3660"
    INDEX 01 00:18:45
  TRACK 19 AUDIO
    TITLE "0:"
    INDEX 01 00:19:49
  TRACK 20 AUDIO
    TITLE "8:cjc174_3661"
    INDEX 01 00:20:27
  TRACK 21 AUDIO
    TITLE "0:"
    INDEX 01 00:24:44
  TRACK 22 AUDIO
    TITLE "7:cjc174_3662"
    INDEX 01 00:25:12
  TRACK 23 AUDIO
    TITLE "0:"
    INDEX 01 00:26:23
  TRACK 24 AUDIO
    TITLE "8:cjc174_3663"
    INDEX 01 00:26:74
  TRACK 25 AUDIO
    TITLE "0:"
    INDEX 01 00:28:14
  TRACK 26 AUDIO
    TITLE "7:cjc174_3664"
    INDEX 01 00:28:60
  TRACK 27 AUDIO
    TITLE "0:"
    INDEX 01 00:30:19
  TRACK 28 AUDIO
    TITLE "8:cjc174_3665"
    INDEX 01 00:30:64
  TRACK 29 AUDIO
    TITLE "0:"
    INDEX 01 00:32:18
  TRACK 30 AUDIO
    TITLE "7:cjc174_3666"
    INDEX 01 00:32:63
  TRACK 31 AUDIO
    TITLE "0:"
    INDEX 01 00:34:17
  TRACK 32 AUDIO
    TITLE "8:cjc174_3667"
    INDEX 01 00:34:66
  TRACK 33 AUDIO
    TITLE "0:"
    INDEX 01 00:36:67
  TRACK 34 AUDIO
    TITLE "7:cjc174_3668"
    INDEX 01 00:37:37
  TRACK 35 AUDIO
    TITLE "0:"
    INDEX 01 00:38:56
  TRACK 36 AUDIO
    TITLE "8:cjc174_3669"
    INDEX 01 00:39:34
  TRACK 37 AUDIO
    TITLE "0:"
    INDEX 01 00:41:64
  TRACK 38 AUDIO
    TITLE "7:cjc174_3670"
    INDEX 01 00:42:34
  TRACK 39 AUDIO
    TITLE "0:"
    INDEX 01 00:43:67
  TRACK 40 AUDIO
    TITLE "8:cjc174_3671"
    INDEX 01 00:44:41
  TRACK 41 AUDIO
    TITLE "0:"
    INDEX 01 00:46:46
  TRACK 42 AUDIO
    TITLE "7:cjc174_3672"
    INDEX 01 00:47:14
  TRACK 43 AUDIO
    TITLE "0:"
    INDEX 01 00:48:31
  TRACK 44 AUDIO
    TITLE "8:cjc174_3673"
    INDEX 01 00:49:01
  TRACK 45 AUDIO
    TITLE "0:"
    INDEX 01 00:51:25
  TRACK 46 AUDIO
    TITLE "7:cjc174_3674"
    INDEX 01 00:51:70
  TRACK 47 AUDIO
    TITLE "0:"
    INDEX 01 00:53:05
  TRACK 48 AUDIO
    TITLE "8:cjc174_3675"
    INDEX 01 00:53:52
  TRACK 49 AUDIO
    TITLE "0:"
    INDEX 01 00:56:17
  TRACK 50 AUDIO
    TITLE "7:cjc174_3676"
    INDEX 01 00:56:62
  TRACK 51 AUDIO
    TITLE "0:"
    INDEX 01 00:57:71
  TRACK 52 AUDIO
    TITLE "8:cjc174_3677"
    INDEX 01 00:58:43
  TRACK 53 AUDIO
    TITLE "0:"
    INDEX 01 01:00:34
  TRACK 54 AUDIO
    TITLE "7:cjc174_3678"
    INDEX 01 01:01:04
  TRACK 55 AUDIO
    TITLE "0:"
    INDEX 01 01:02:27
  TRACK 56 AUDIO
    TITLE "8:cjc174_3679"
    INDEX 01 01:02:74
  TRACK 57 AUDIO
    TITLE "0:"
    INDEX 01 01:04:16
  TRACK 58 AUDIO
    TITLE "7:cjc174_3680"
    INDEX 01 01:04:63
  TRACK 59 AUDIO
    TITLE "0:"
    INDEX 01 01:05:65
  TRACK 60 AUDIO
    TITLE "8:cjc174_3681"
    INDEX 01 01:06:35
  TRACK 61 AUDIO
    TITLE "0:"
    INDEX 01 01:09:62
  TRACK 62 AUDIO
    TITLE "7:cjc174_3682"
    INDEX 01 01:10:32
  TRACK 63 AUDIO
    TITLE "0:"
    INDEX 01 01:11:67
  TRACK 64 AUDIO
    TITLE "8:cjc174_3683"
    INDEX 01 01:12:49
  TRACK 65 AUDIO
    TITLE "0:"
    INDEX 01 01:14:20
  TRACK 66 AUDIO
    TITLE "7:cjc174_3684"
    INDEX 01 01:14:66
  TRACK 67 AUDIO
    TITLE "0:"
    INDEX 01 01:16:37
  TRACK 68 AUDIO
    TITLE "8:cjc174_3685"
    INDEX 01 01:17:07
  TRACK 69 AUDIO
    TITLE "0:"
    INDEX 01 01:21:28
  TRACK 70 AUDIO
    TITLE "7:cjc174_3686"
    INDEX 01 01:21:73
  TRACK 71 AUDIO
    TITLE "0:"
    INDEX 01 01:23:17
  TRACK 72 AUDIO
    TITLE "8:cjc174_3687"
    INDEX 01 01:23:68
  TRACK 73 AUDIO
    TITLE "0:"
    INDEX 01 01:26:08
